<svg width="25" height="25" viewBox="0 0 25 25" fill="none" xmlns="http://www.w3.org/2000/svg">
<path d="M12.5 0C5.60729 0 0 5.60729 0 12.5C0 19.3927 5.60729 25 12.5 25C19.3927 25 25 19.3927 25 12.5C25 5.60729 19.3927 0 12.5 0ZM12.5 23.9583C6.18229 23.9583 1.04167 18.8177 1.04167 12.5C1.04167 6.18229 6.18229 1.04167 12.5 1.04167C18.8177 1.04167 23.9583 6.18229 23.9583 12.5C23.9583 18.8177 18.8177 23.9583 12.5 23.9583ZM17.7083 12.5C17.7083 12.7875 17.475 13.0208 17.1875 13.0208H13.0208V17.1875C13.0208 17.475 12.7875 17.7083 12.5 17.7083C12.2125 17.7083 11.9792 17.475 11.9792 17.1875V13.0208H7.8125C7.525 13.0208 7.29167 12.7875 7.29167 12.5C7.29167 12.2125 7.525 11.9792 7.8125 11.9792H11.9792V7.8125C11.9792 7.525 12.2125 7.29167 12.5 7.29167C12.7875 7.29167 13.0208 7.525 13.0208 7.8125V11.9792H17.1875C17.475 11.9792 17.7083 12.2125 17.7083 12.5Z" fill="#707579"/>
</svg>
