<svg width="18" height="20" viewBox="0 0 18 20" fill="none" xmlns="http://www.w3.org/2000/svg">
<path fill-rule="evenodd" clip-rule="evenodd" d="M1.93934 2.08077C2.52513 1.45224 3.47487 1.45224 4.06066 2.08077L9 7.38049L13.9393 2.08077C14.5251 1.45224 15.4749 1.45224 16.0607 2.08077C16.6464 2.7093 16.6464 3.72834 16.0607 4.35686L11.1213 9.65659L16.0607 14.9563C16.6464 15.5848 16.6464 16.6039 16.0607 17.2324C15.4749 17.8609 14.5251 17.8609 13.9393 17.2324L9 11.9327L4.06066 17.2324C3.47487 17.8609 2.52513 17.8609 1.93934 17.2324C1.35355 16.6039 1.35355 15.5848 1.93934 14.9563L6.87868 9.65659L1.93934 4.35686C1.35355 3.72834 1.35355 2.7093 1.93934 2.08077Z" fill="#707579"/>
</svg>
