<svg width="20" height="20" viewBox="0 0 20 20" fill="none" xmlns="http://www.w3.org/2000/svg">
<path d="M7.64256 3.43296C8.37145 1.45542 8.73589 0.466645 9.26604 0.183785C9.72532 -0.0612617 10.2747 -0.0612617 10.734 0.183785C11.2641 0.466645 11.6286 1.45542 12.3574 3.43296L12.7087 4.38605C12.9194 4.95767 13.0248 5.24348 13.2064 5.45787C13.3669 5.64733 13.5692 5.79595 13.7971 5.89171C14.0549 6.00005 14.3564 6.01301 14.9593 6.03892L15.9646 6.08212C18.0504 6.17175 19.0933 6.21657 19.5233 6.63882C19.8958 7.00463 20.0655 7.53277 19.9769 8.05002C19.8746 8.6471 19.0569 9.30301 17.4216 10.6148L16.6334 11.2471C16.1607 11.6263 15.9243 11.8159 15.7788 12.0567C15.6501 12.2696 15.5728 12.51 15.5531 12.7587C15.5309 13.04 15.6118 13.3338 15.7738 13.9215L16.0438 14.9013C16.604 16.9342 16.8841 17.9507 16.6197 18.4945C16.3906 18.9656 15.9462 19.292 15.4321 19.3667C14.8387 19.4528 13.9689 18.8694 12.2293 17.7026L11.3909 17.1403C10.8881 16.803 10.6367 16.6344 10.3651 16.5688C10.1251 16.5109 9.87493 16.5109 9.63491 16.5688C9.36332 16.6344 9.1119 16.803 8.60906 17.1403L7.77065 17.7026C6.03106 18.8694 5.16127 19.4528 4.56789 19.3667C4.05383 19.292 3.60939 18.9656 3.38032 18.4945C3.1159 17.9507 3.39601 16.9342 3.95624 14.9013L4.22624 13.9215C4.38818 13.3338 4.46915 13.04 4.44688 12.7587C4.4272 12.51 4.34991 12.2696 4.22124 12.0567C4.07566 11.8159 3.8393 11.6263 3.36659 11.2471L2.57842 10.6148C0.943072 9.30301 0.125395 8.6471 0.0230895 8.05002C-0.0655404 7.53277 0.10422 7.00463 0.4767 6.63882C0.906656 6.21657 1.94957 6.17175 4.0354 6.08212L5.04068 6.03892C5.6436 6.01301 5.94507 6.00005 6.20289 5.89171C6.43075 5.79595 6.63312 5.64733 6.79362 5.45787C6.97523 5.24348 7.08058 4.95767 7.29127 4.38605L7.64256 3.43296Z" fill="#F4F4F7"/>
</svg>
