<svg width="20" height="20" viewBox="0 0 20 20" fill="none" xmlns="http://www.w3.org/2000/svg">
<path fill-rule="evenodd" clip-rule="evenodd" d="M10 3C9.08075 3 8.1705 3.18106 7.32122 3.53284C6.47194 3.88463 5.70026 4.40024 5.05025 5.05025C4.40024 5.70026 3.88463 6.47194 3.53284 7.32122C3.18106 8.1705 3 9.08075 3 10C3 10.9193 3.18106 11.8295 3.53284 12.6788C3.88463 13.5281 4.40024 14.2997 5.05025 14.9497C5.70026 15.5998 6.47194 16.1154 7.32122 16.4672C8.1705 16.8189 9.08075 17 10 17C11.8565 17 13.637 16.2625 14.9497 14.9497C16.2625 13.637 17 11.8565 17 10C17 8.14348 16.2625 6.36301 14.9497 5.05025C13.637 3.7375 11.8565 3 10 3ZM1 10C1 7.61305 1.94821 5.32387 3.63604 3.63604C5.32387 1.94821 7.61305 1 10 1C12.3869 1 14.6761 1.94821 16.364 3.63604C18.0518 5.32387 19 7.61305 19 10C19 12.3869 18.0518 14.6761 16.364 16.364C14.6761 18.0518 12.3869 19 10 19C7.61305 19 5.32387 18.0518 3.63604 16.364C1.94821 14.6761 1 12.3869 1 10ZM9.423 7C9.17821 7 8.94344 7.09724 8.77034 7.27034C8.59724 7.44344 8.5 7.67821 8.5 7.923V8.308C8.5 8.57322 8.39464 8.82757 8.20711 9.01511C8.01957 9.20264 7.76522 9.308 7.5 9.308C7.23478 9.308 6.98043 9.20264 6.79289 9.01511C6.60536 8.82757 6.5 8.57322 6.5 8.308V7.923C6.5 7.14777 6.80796 6.4043 7.35613 5.85613C7.9043 5.30796 8.64777 5 9.423 5H10C11.941 5 13.5 6.591 13.5 8.516C13.5 9.443 13.02 10.316 12.224 10.806L10.524 11.852C10.4121 11.9208 10.2878 11.9669 10.1581 11.9877C10.0284 12.0084 9.89584 12.0034 9.76807 11.973C9.6403 11.9425 9.51977 11.8872 9.41338 11.8102C9.30699 11.7331 9.21681 11.6359 9.148 11.524C9.00903 11.298 8.96551 11.0261 9.02702 10.7681C9.08853 10.51 9.25004 10.287 9.476 10.148L11.176 9.102C11.2752 9.03979 11.357 8.95337 11.4137 8.85087C11.4704 8.74836 11.5001 8.63313 11.5 8.516C11.5 7.679 10.82 7 10 7H9.423ZM10.01 15C10.2752 15 10.5296 14.8946 10.7171 14.7071C10.9046 14.5196 11.01 14.2652 11.01 14C11.01 13.7348 10.9046 13.4804 10.7171 13.2929C10.5296 13.1054 10.2752 13 10.01 13H10C9.73478 13 9.48043 13.1054 9.29289 13.2929C9.10536 13.4804 9 13.7348 9 14C9 14.2652 9.10536 14.5196 9.29289 14.7071C9.48043 14.8946 9.73478 15 10 15H10.01Z" fill="#A2ACB0"/>
</svg>
