<svg width="61" height="61" viewBox="0 0 61 61" fill="none" xmlns="http://www.w3.org/2000/svg">
<g clip-path="url(#clip0_1_2789)">
<path d="M61.0001 57.4061L45.0841 41.4902C49.2185 36.4338 51.2512 29.9818 50.7618 23.4687C50.2725 16.9556 47.2985 10.8797 42.455 6.49788C37.6115 2.11602 31.2691 -0.236593 24.7397 -0.0733368C18.2103 0.089919 11.9934 2.75655 7.37499 7.37499C2.75655 11.9934 0.089919 18.2103 -0.0733368 24.7397C-0.236593 31.2691 2.11602 37.6115 6.49788 42.455C10.8797 47.2985 16.9556 50.2725 23.4687 50.7618C29.9818 51.2512 36.4338 49.2185 41.4902 45.0841L57.4061 61.0001L61.0001 57.4061ZM25.4167 45.7501C21.3952 45.7501 17.4639 44.5575 14.1201 42.3233C10.7763 40.089 8.17015 36.9134 6.63117 33.1979C5.09219 29.4825 4.68952 25.3942 5.47409 21.4499C6.25865 17.5056 8.19522 13.8826 11.0389 11.0389C13.8826 8.19522 17.5056 6.25865 21.4499 5.47409C25.3942 4.68952 29.4825 5.09219 33.1979 6.63117C36.9134 8.17015 40.089 10.7763 42.3233 14.1201C44.5575 17.4639 45.7501 21.3952 45.7501 25.4167C45.744 30.8076 43.5998 35.9759 39.7879 39.7879C35.9759 43.5998 30.8076 45.744 25.4167 45.7501Z" fill="#007AFF" fill-opacity="0.7"/>
</g>
<defs>
<clipPath id="clip0_1_2789">
<rect width="61" height="61" fill="white"/>
</clipPath>
</defs>
</svg>
