<svg width="44" height="44" viewBox="0 0 44 44" fill="none" xmlns="http://www.w3.org/2000/svg">
<g clip-path="url(#clip0_1_2838)">
<path d="M33.3923 16.6797C34.1018 17.402 34.0908 18.5625 33.3667 19.272L25.2523 27.2378C23.8168 28.6458 21.9688 29.348 20.119 29.348C18.2893 29.348 16.4597 28.6587 15.0297 27.2782L11.5482 23.8553C10.8258 23.1458 10.8167 21.9853 11.5262 21.263C12.2338 20.5388 13.398 20.5297 14.1185 21.241L17.589 24.6528C19.0117 26.0278 21.2575 26.0205 22.6875 24.6198L30.8 16.6558C31.5205 15.9445 32.6773 15.9573 33.3923 16.6797ZM44 22C44 34.1312 34.1312 44 22 44C9.86883 44 0 34.1312 0 22C0 9.86883 9.86883 0 22 0C34.1312 0 44 9.86883 44 22ZM40.3333 22C40.3333 11.891 32.109 3.66667 22 3.66667C11.891 3.66667 3.66667 11.891 3.66667 22C3.66667 32.109 11.891 40.3333 22 40.3333C32.109 40.3333 40.3333 32.109 40.3333 22Z" fill="#007AFF" fill-opacity="0.7"/>
</g>
<defs>
<clipPath id="clip0_1_2838">
<rect width="44" height="44" fill="white"/>
</clipPath>
</defs>
</svg>
