<svg width="111" height="108" viewBox="0 0 111 108" fill="none" xmlns="http://www.w3.org/2000/svg">
<path d="M27 38.5C28.5 36.5 40 43 54 57C68 71 72 80.5 70.5 81.5M27 38.5L3.95381 102.465C3.37796 104.063 4.93104 105.606 6.52554 105.02L70.5 81.5M27 38.5C25 40 30.4309 49.8793 40.2848 61M70.5 81.5C67.7801 82.5 60.4733 80.0815 49.2177 70M40.2848 61C41.7118 62.6105 43.2796 64.2797 45 66C46.4588 67.4588 47.8654 68.7887 49.2177 70M40.2848 61C45.1899 41.6667 45.5 4.40003 7.5 10M49.2177 70C60.3118 64 84.2 58.2 91 83M12 28L15 31M2.5 60L6 57M43.5 6.5L46 2M65 4.5C64.6667 6.16667 63 10.2 59 13C54 16.5 59 18 62 21C65 24 65 27 62 29C59 31 57 34.5 58 36.5M92 6.5L97.5 11.5M66.5 49C67.3333 47 69.8 43.6 73 46C77 49 83 45.5 81 41C79 36.5 77 32.5 82.5 33C88 33.5 88 37 91 33M97.5 49L99.5 55M105 81.5L108.5 75.5M85 104L91 101M55.5 104L52 98.5" stroke="url(#paint0_linear_1_1089)" stroke-width="4" stroke-linecap="round"/>
<defs>
<linearGradient id="paint0_linear_1_1089" x1="-5" y1="2" x2="101" y2="115.5" gradientUnits="userSpaceOnUse">
<stop stop-color="#C66AED"/>
<stop offset="1" stop-color="#62D6EC"/>
</linearGradient>
</defs>
</svg>
