<svg width="21" height="21" viewBox="0 0 21 21" fill="none" xmlns="http://www.w3.org/2000/svg">
<g clip-path="url(#clip0_1_1799)">
<path d="M10.9363 9.16013L10.9367 1.25637C10.9367 0.765724 10.539 0.367977 10.0483 0.367997C9.55768 0.367997 9.15993 0.765744 9.15995 1.25637L9.16035 9.16013L1.25661 9.15972C0.765958 9.15972 0.368211 9.55747 0.368231 10.0481C0.36825 10.5387 0.765978 10.9365 1.25661 10.9365L9.16035 10.9361L9.15995 18.8398C9.15995 19.3305 9.5577 19.7282 10.0483 19.7282C10.539 19.7282 10.9367 19.3304 10.9367 18.8398L10.9363 10.9361L18.84 10.9365C19.3307 10.9365 19.7284 10.5387 19.7284 10.0481C19.7284 9.55747 19.3307 9.15972 18.84 9.15974L10.9363 9.16013Z" fill="black"/>
</g>
<defs>
<clipPath id="clip0_1_1799">
<rect width="14.2102" height="14.2102" fill="white" transform="translate(0 10.0481) rotate(-45)"/>
</clipPath>
</defs>
</svg>
