<svg width="20" height="20" viewBox="0 0 20 20" fill="none" xmlns="http://www.w3.org/2000/svg">
<g clip-path="url(#clip0_1_1792)">
<path d="M0.833333 3.9583H3.11333C3.2922 4.61641 3.68264 5.19738 4.22444 5.61158C4.76623 6.02578 5.42927 6.25019 6.11125 6.25019C6.79323 6.25019 7.45627 6.02578 7.99806 5.61158C8.53986 5.19738 8.9303 4.61641 9.10917 3.9583H19.1667C19.3877 3.9583 19.5996 3.87051 19.7559 3.71423C19.9122 3.55795 20 3.34599 20 3.12497C20 2.90396 19.9122 2.692 19.7559 2.53572C19.5996 2.37944 19.3877 2.29164 19.1667 2.29164H9.10917C8.9303 1.63353 8.53986 1.05256 7.99806 0.638362C7.45627 0.224165 6.79323 -0.000244141 6.11125 -0.000244141C5.42927 -0.000244141 4.76623 0.224165 4.22444 0.638362C3.68264 1.05256 3.2922 1.63353 3.11333 2.29164H0.833333C0.61232 2.29164 0.400358 2.37944 0.244078 2.53572C0.0877974 2.692 0 2.90396 0 3.12497C0 3.34599 0.0877974 3.55795 0.244078 3.71423C0.400358 3.87051 0.61232 3.9583 0.833333 3.9583ZM6.11083 1.66664C6.39926 1.66664 6.68122 1.75217 6.92104 1.91241C7.16086 2.07266 7.34778 2.30042 7.45816 2.56689C7.56854 2.83337 7.59742 3.12659 7.54115 3.40948C7.48488 3.69237 7.34598 3.95222 7.14203 4.15617C6.93808 4.36012 6.67823 4.49901 6.39534 4.55528C6.11245 4.61155 5.81923 4.58267 5.55275 4.4723C5.28628 4.36192 5.05852 4.175 4.89827 3.93518C4.73803 3.69536 4.6525 3.4134 4.6525 3.12497C4.65294 2.73833 4.80673 2.36766 5.08012 2.09426C5.35352 1.82087 5.72419 1.66708 6.11083 1.66664Z" fill="black"/>
<path d="M19.1667 9.16696H16.8867C16.7081 8.5087 16.3178 7.92752 15.7761 7.51315C15.2343 7.09878 14.5712 6.87427 13.8892 6.87427C13.2071 6.87427 12.544 7.09878 12.0023 7.51315C11.4605 7.92752 11.0702 8.5087 10.8917 9.16696H0.833333C0.61232 9.16696 0.400358 9.25476 0.244078 9.41104C0.0877974 9.56732 0 9.77928 0 10.0003C0 10.2213 0.0877974 10.4333 0.244078 10.5896C0.400358 10.7458 0.61232 10.8336 0.833333 10.8336H10.8917C11.0702 11.4919 11.4605 12.0731 12.0023 12.4874C12.544 12.9018 13.2071 13.1263 13.8892 13.1263C14.5712 13.1263 15.2343 12.9018 15.7761 12.4874C16.3178 12.0731 16.7081 11.4919 16.8867 10.8336H19.1667C19.3877 10.8336 19.5996 10.7458 19.7559 10.5896C19.9122 10.4333 20 10.2213 20 10.0003C20 9.77928 19.9122 9.56732 19.7559 9.41104C19.5996 9.25476 19.3877 9.16696 19.1667 9.16696ZM13.8892 11.4586C13.6007 11.4586 13.3188 11.3731 13.079 11.2129C12.8391 11.0526 12.6522 10.8249 12.5418 10.5584C12.4315 10.2919 12.4026 9.99868 12.4589 9.71579C12.5151 9.4329 12.654 9.17305 12.858 8.9691C13.0619 8.76515 13.3218 8.62625 13.6047 8.56998C13.8875 8.51371 14.1808 8.54259 14.4472 8.65297C14.7137 8.76335 14.9415 8.95027 15.1017 9.19009C15.262 9.42991 15.3475 9.71186 15.3475 10.0003C15.3471 10.3869 15.1933 10.7576 14.9199 11.031C14.6465 11.3044 14.2758 11.4582 13.8892 11.4586Z" fill="black"/>
<path d="M19.1667 16.0419H9.10917C8.9303 15.3838 8.53986 14.8028 7.99806 14.3886C7.45627 13.9744 6.79323 13.75 6.11125 13.75C5.42927 13.75 4.76623 13.9744 4.22444 14.3886C3.68264 14.8028 3.2922 15.3838 3.11333 16.0419H0.833333C0.61232 16.0419 0.400358 16.1297 0.244078 16.286C0.0877974 16.4422 0 16.6542 0 16.8752C0 17.0962 0.0877974 17.3082 0.244078 17.4645C0.400358 17.6208 0.61232 17.7085 0.833333 17.7085H3.11333C3.2922 18.3667 3.68264 18.9476 4.22444 19.3618C4.76623 19.776 5.42927 20.0004 6.11125 20.0004C6.79323 20.0004 7.45627 19.776 7.99806 19.3618C8.53986 18.9476 8.9303 18.3667 9.10917 17.7085H19.1667C19.3877 17.7085 19.5996 17.6208 19.7559 17.4645C19.9122 17.3082 20 17.0962 20 16.8752C20 16.6542 19.9122 16.4422 19.7559 16.286C19.5996 16.1297 19.3877 16.0419 19.1667 16.0419ZM6.11083 18.3335C5.8224 18.3335 5.54045 18.248 5.30063 18.0878C5.0608 17.9275 4.87389 17.6998 4.76351 17.4333C4.65313 17.1668 4.62425 16.8736 4.68052 16.5907C4.73679 16.3078 4.87568 16.048 5.07964 15.844C5.28359 15.6401 5.54344 15.5012 5.82633 15.4449C6.10922 15.3886 6.40244 15.4175 6.66891 15.5279C6.93539 15.6383 7.16315 15.8252 7.32339 16.065C7.48364 16.3048 7.56917 16.5868 7.56917 16.8752C7.56851 17.2618 7.41465 17.6323 7.1413 17.9057C6.86795 18.179 6.4974 18.3329 6.11083 18.3335Z" fill="black"/>
</g>
<defs>
<clipPath id="clip0_1_1792">
<rect width="20" height="20" fill="white" transform="translate(0 0.000244141)"/>
</clipPath>
</defs>
</svg>
