<svg width="20" height="20" viewBox="0 0 20 20" fill="none" xmlns="http://www.w3.org/2000/svg">
<g clip-path="url(#clip0_68_874)">
<path d="M0 16.26C0 17.3 0.366667 18.18 1.1 18.9C1.83333 19.62 2.72 19.9867 3.76 20H16.26C17.2867 20 18.1667 19.6333 18.9 18.9C19.6333 18.1667 20 17.2867 20 16.26V3.76C20 2.72 19.6333 1.83333 18.9 1.1C18.1667 0.366667 17.2867 0 16.26 0H3.76C2.72 0 1.83333 0.366667 1.1 1.1C0.366667 1.83333 0 2.72 0 3.76L0 16.26ZM2.5 16.26V3.76C2.5 3.41333 2.62 3.12 2.86 2.88C3.1 2.64 3.4 2.51333 3.76 2.5H16.26C16.5933 2.5 16.8867 2.62667 17.14 2.88C17.3933 3.13333 17.5133 3.42667 17.5 3.76V16.26C17.5 16.6067 17.38 16.9 17.14 17.14C16.9 17.38 16.6067 17.5 16.26 17.5H3.76C3.41333 17.5 3.11333 17.38 2.86 17.14C2.60667 16.9 2.48667 16.6067 2.5 16.26ZM3.76 15C3.76 15.3467 3.88 15.6467 4.12 15.9C4.36 16.1533 4.65333 16.2733 5 16.26H15C15.3467 16.26 15.64 16.14 15.88 15.9C16.12 15.66 16.2467 15.36 16.26 15V14.42C16.1667 14.2333 15.9333 13.6733 15.56 12.74C15.1867 11.8067 14.8533 11.06 14.56 10.5C14.2667 9.94 14 9.5 13.76 9.18C13.5333 8.94 13.3 8.81333 13.06 8.8C12.82 8.78667 12.58 8.86667 12.34 9.04C12.1 9.21333 11.86 9.44667 11.62 9.74C11.38 10.0333 11.1333 10.36 10.88 10.72C10.6267 11.08 10.3867 11.4333 10.16 11.78C9.93333 12.1267 9.69333 12.46 9.44 12.78C9.18667 13.1 8.96 13.3467 8.76 13.52C8.56 13.6933 8.33333 13.7867 8.08 13.8C7.84 13.8 7.49333 13.5 7.04 12.9C6.97333 12.82 6.87333 12.6933 6.74 12.52C6.27333 11.8933 5.94 11.5133 5.74 11.38C5.42 11.1667 5.17333 11.24 5 11.6C4.90667 11.8133 4.71333 12.28 4.42 13C4.12667 13.72 3.90667 14.2533 3.76 14.6V15ZM3.76 5.64C3.76 6.16 3.94 6.6 4.3 6.96C4.66 7.32 5.1 7.5 5.62 7.5C6.14 7.5 6.58667 7.32 6.96 6.96C7.33333 6.6 7.51333 6.16 7.5 5.64C7.48667 5.12 7.30667 4.67333 6.96 4.3C6.61333 3.92667 6.16667 3.74667 5.62 3.76C5.07333 3.77333 4.63333 3.95333 4.3 4.3C3.96667 4.64667 3.78667 5.09333 3.76 5.64Z" fill="black"/>
</g>
<defs>
<clipPath id="clip0_68_874">
<rect width="20" height="20" fill="white"/>
</clipPath>
</defs>
</svg>
