<svg width="20" height="20" viewBox="0 0 20 20" fill="none" xmlns="http://www.w3.org/2000/svg">
<g clip-path="url(#clip0_1_1796)">
<path d="M20.0001 18.8218L14.7817 13.6035C16.1372 11.9457 16.8037 9.83026 16.6433 7.69482C16.4828 5.55938 15.5077 3.56729 13.9197 2.13062C12.3317 0.693943 10.2522 -0.0774053 8.11143 -0.0238788C5.97064 0.0296477 3.93231 0.903954 2.41807 2.4182C0.903832 3.93244 0.0295257 5.97076 -0.0240008 8.11155C-0.0775273 10.2523 0.693821 12.3318 2.1305 13.9198C3.56717 15.5079 5.55925 16.4829 7.6947 16.6434C9.83014 16.8038 11.9456 16.1374 13.6034 14.7819L18.8217 20.0002L20.0001 18.8218ZM8.3334 15.0002C7.01485 15.0002 5.72592 14.6092 4.62959 13.8766C3.53327 13.1441 2.67878 12.1029 2.1742 10.8847C1.66961 9.66656 1.53759 8.32612 1.79483 7.03292C2.05206 5.73971 2.687 4.55182 3.61935 3.61947C4.5517 2.68712 5.73959 2.05218 7.03279 1.79495C8.326 1.53771 9.66644 1.66974 10.8846 2.17432C12.1028 2.6789 13.144 3.53339 13.8765 4.62972C14.6091 5.72604 15.0001 7.01497 15.0001 8.33352C14.9981 10.101 14.2951 11.7956 13.0452 13.0454C11.7954 14.2952 10.1009 14.9982 8.3334 15.0002Z" fill="black"/>
</g>
<defs>
<clipPath id="clip0_1_1796">
<rect width="20" height="20" fill="white" transform="translate(0 0.000244141)"/>
</clipPath>
</defs>
</svg>
