<svg width="21" height="21" viewBox="0 0 21 21" fill="none" xmlns="http://www.w3.org/2000/svg">
<g clip-path="url(#clip0_1_2358)">
<path d="M10.5 0C4.71012 0 0 4.71012 0 10.5C0 16.2899 4.71012 21 10.5 21C16.2899 21 21 16.2899 21 10.5C21 4.71012 16.2899 0 10.5 0ZM10.5 20.125C5.19312 20.125 0.875 15.8069 0.875 10.5C0.875 5.19312 5.19312 0.875 10.5 0.875C15.8069 0.875 20.125 5.19312 20.125 10.5C20.125 15.8069 15.8069 20.125 10.5 20.125ZM14.875 10.5C14.875 10.7415 14.679 10.9375 14.4375 10.9375H10.9375V14.4375C10.9375 14.679 10.7415 14.875 10.5 14.875C10.2585 14.875 10.0625 14.679 10.0625 14.4375V10.9375H6.5625C6.321 10.9375 6.125 10.7415 6.125 10.5C6.125 10.2585 6.321 10.0625 6.5625 10.0625H10.0625V6.5625C10.0625 6.321 10.2585 6.125 10.5 6.125C10.7415 6.125 10.9375 6.321 10.9375 6.5625V10.0625H14.4375C14.679 10.0625 14.875 10.2585 14.875 10.5Z" fill="#A2ACB0"/>
</g>
<defs>
<clipPath id="clip0_1_2358">
<rect width="21" height="21" fill="white"/>
</clipPath>
</defs>
</svg>
