<svg width="21" height="21" viewBox="0 0 21 21" fill="none" xmlns="http://www.w3.org/2000/svg">
<g clip-path="url(#clip0_1_2356)">
<path d="M13.8723 9.49725L11.1195 12.25L13.8723 15.0028C14.0429 15.1734 14.0429 15.4508 13.8723 15.6214C13.7865 15.7071 13.6745 15.7491 13.5625 15.7491C13.4505 15.7491 13.3385 15.7063 13.2527 15.6214L10.5 12.8686L7.74725 15.6214C7.6615 15.7071 7.5495 15.7491 7.4375 15.7491C7.3255 15.7491 7.2135 15.7063 7.12775 15.6214C6.95713 15.4508 6.95713 15.1734 7.12775 15.0028L9.8805 12.25L7.12775 9.49725C6.95713 9.32662 6.95713 9.04925 7.12775 8.87862C7.29838 8.708 7.57575 8.708 7.74637 8.87862L10.4991 11.6314L13.2519 8.87862C13.4225 8.708 13.6999 8.708 13.8705 8.87862C14.0411 9.04925 14.0411 9.32662 13.8705 9.49725H13.8723ZM20.125 3.9375C20.125 4.179 19.929 4.375 19.6875 4.375H18.375C18.375 4.38812 18.375 4.40125 18.3733 4.41525L17.1745 17.4239C16.9864 19.4626 15.3002 21 13.2536 21H7.76562C5.72075 21 4.0355 19.4653 3.84562 17.43L2.62762 4.41612C2.62675 4.40212 2.62587 4.389 2.62587 4.375H1.31337C1.07188 4.375 0.875875 4.179 0.875875 3.9375C0.875875 3.696 1.07188 3.5 1.31337 3.5H5.71287C5.93162 1.53387 7.60287 0 9.62587 0H11.3759C13.3989 0 15.071 1.53387 15.2889 3.5H19.6884C19.9299 3.5 20.125 3.696 20.125 3.9375ZM6.594 3.5H14.406C14.1934 2.01775 12.915 0.875 11.375 0.875H9.625C8.085 0.875 6.80662 2.01775 6.594 3.5ZM17.4983 4.375H3.50175L4.71537 17.3477C4.86238 18.9315 6.174 20.125 7.76388 20.125H13.2519C14.8444 20.125 16.1551 18.9297 16.3012 17.3434L17.4965 4.375H17.4983Z" fill="#A2ACB0"/>
</g>
<defs>
<clipPath id="clip0_1_2356">
<rect width="21" height="21" fill="white"/>
</clipPath>
</defs>
</svg>
