<svg width="15" height="15" viewBox="0 0 15 15" fill="none" xmlns="http://www.w3.org/2000/svg">
<path d="M13.1875 6.6875H8.3125V1.8125C8.3125 1.36377 7.94873 1 7.5 1C7.05127 1 6.6875 1.36377 6.6875 1.8125V6.6875H1.8125C1.36377 6.6875 1 7.05127 1 7.5C1 7.94873 1.36377 8.3125 1.8125 8.3125H6.6875V13.1875C6.6875 13.6362 7.05127 14 7.5 14C7.94873 14 8.3125 13.6362 8.3125 13.1875V8.3125H13.1875C13.6362 8.3125 14 7.94873 14 7.5C14 7.05127 13.6362 6.6875 13.1875 6.6875Z" fill="black" fill-opacity="0.8"/>
</svg>
