<svg width="22" height="22" viewBox="0 0 22 22" fill="none" xmlns="http://www.w3.org/2000/svg">
<g clip-path="url(#clip0_7_778)">
<path d="M19.25 21.0833C19.25 21.5903 18.8394 22 18.3334 22C17.8274 22 17.4167 21.5903 17.4167 21.0833C17.4167 19.0612 15.7722 17.4167 13.75 17.4167H8.25004C6.22787 17.4167 4.58337 19.0612 4.58337 21.0833C4.58337 21.5903 4.17271 22 3.66671 22C3.16071 22 2.75004 21.5903 2.75004 21.0833C2.75004 18.0501 5.21679 15.5833 8.25004 15.5833H13.75C16.7833 15.5833 19.25 18.0501 19.25 21.0833ZM20.1667 6.875V8.70833C20.1667 9.46642 19.5498 10.0833 18.7917 10.0833H18.3334C18.3334 12.1055 16.6889 13.75 14.6667 13.75H7.33337C5.31121 13.75 3.66671 12.1055 3.66671 10.0833H3.20837C2.45029 10.0833 1.83337 9.46642 1.83337 8.70833V6.875C1.83337 6.11692 2.45029 5.5 3.20837 5.5H3.66671C3.66671 3.47783 5.31121 1.83333 7.33337 1.83333H10.0834V0.916667C10.0834 0.40975 10.494 0 11 0C11.506 0 11.9167 0.40975 11.9167 0.916667V1.83333H14.6667C16.6889 1.83333 18.3334 3.47783 18.3334 5.5H18.7917C19.5498 5.5 20.1667 6.11692 20.1667 6.875ZM16.5 5.5C16.5 4.48892 15.6778 3.66667 14.6667 3.66667H7.33337C6.32229 3.66667 5.50004 4.48892 5.50004 5.5V10.0833C5.50004 11.0944 6.32229 11.9167 7.33337 11.9167H14.6667C15.6778 11.9167 16.5 11.0944 16.5 10.0833V5.5ZM8.70837 6.41667C7.94937 6.41667 7.33337 7.03267 7.33337 7.79167C7.33337 8.55067 7.94937 9.16667 8.70837 9.16667C9.46737 9.16667 10.0834 8.55067 10.0834 7.79167C10.0834 7.03267 9.46737 6.41667 8.70837 6.41667ZM13.2917 6.41667C12.5327 6.41667 11.9167 7.03267 11.9167 7.79167C11.9167 8.55067 12.5327 9.16667 13.2917 9.16667C14.0507 9.16667 14.6667 8.55067 14.6667 7.79167C14.6667 7.03267 14.0507 6.41667 13.2917 6.41667Z" fill="#007AFF"/>
</g>
<defs>
<clipPath id="clip0_7_778">
<rect width="22" height="22" fill="white"/>
</clipPath>
</defs>
</svg>
