<svg width="22" height="22" viewBox="0 0 22 22" fill="none" xmlns="http://www.w3.org/2000/svg">
<g clip-path="url(#clip0_30_758)">
<path d="M20.0589 1.94116H15.5295C14.4618 1.94116 12.9706 2.55882 12.2157 3.31378L4.60796 10.9215C3.85305 11.6764 3.85305 12.9118 4.60796 13.6667L10.2745 19.3332C11.0294 20.0881 12.2648 20.0881 13.0197 19.3332L20.6274 11.7255C21.3824 10.9706 22.0001 9.4794 22.0001 8.41175V3.88234C22.0001 2.81469 21.1265 1.94116 20.0589 1.94116ZM17.4706 8.41175C16.3985 8.41175 15.5295 7.54267 15.5295 6.47057C15.5295 5.39848 16.3985 4.5294 17.4706 4.5294C18.5427 4.5294 19.4118 5.39848 19.4118 6.47057C19.4118 7.54267 18.5427 8.41175 17.4706 8.41175ZM1.75168 12.7516L8.67477 19.6747C7.94149 20.0621 7.00734 19.9484 6.39215 19.3332L0.72561 13.6667C-0.029305 12.9118 -0.029305 11.6764 0.72561 10.9215L8.33332 3.31378C9.08828 2.55882 10.5795 1.94116 11.6471 1.94116L1.75168 11.8366C1.50006 12.0882 1.50006 12.4999 1.75168 12.7516Z" fill="#007AFF"/>
</g>
<defs>
<clipPath id="clip0_30_758">
<rect width="22" height="22" fill="white"/>
</clipPath>
</defs>
</svg>
