<svg width="22" height="22" viewBox="0 0 22 22" fill="none" xmlns="http://www.w3.org/2000/svg">
<g clip-path="url(#clip0_7_763)">
<path d="M1.83335 16.0417H4.125C5.13752 16.0417 5.95835 16.8626 5.95835 17.8751V20.1667C5.95835 21.1793 5.13752 22.0001 4.125 22.0001H1.83335C0.820832 22.0001 0 21.1793 0 20.1667V17.8751C0 16.8626 0.820832 16.0417 1.83335 16.0417Z" fill="#007AFF"/>
<path d="M17.875 16.0417H20.1666C21.1792 16.0417 22 16.8626 22 17.8751V20.1667C22 21.1793 21.1792 22.0001 20.1666 22.0001H17.875C16.8625 22.0001 16.0416 21.1793 16.0416 20.1667V17.8751C16.0416 16.8626 16.8625 16.0417 17.875 16.0417Z" fill="#007AFF"/>
<path d="M1.83335 8.02075H4.125C5.13752 8.02075 5.95835 8.84158 5.95835 9.8541V12.1458C5.95835 13.1583 5.13752 13.9791 4.125 13.9791H1.83335C0.820832 13.9791 0 13.1583 0 12.1458V9.8541C0 8.84154 0.820832 8.02075 1.83335 8.02075Z" fill="#007AFF"/>
<path d="M17.875 8.02075H20.1666C21.1791 8.02075 22 8.84158 22 9.8541V12.1458C22 13.1583 21.1792 13.9791 20.1666 13.9791H17.875C16.8625 13.9791 16.0416 13.1583 16.0416 12.1458V9.8541C16.0416 8.84154 16.8625 8.02075 17.875 8.02075Z" fill="#007AFF"/>
<path d="M1.83335 0H4.125C5.13752 0 5.95835 0.820832 5.95835 1.83335V4.125C5.95835 5.13752 5.13752 5.95835 4.125 5.95835H1.83335C0.820832 5.95835 0 5.13752 0 4.125V1.83335C0 0.820832 0.820832 0 1.83335 0Z" fill="#007AFF"/>
<path d="M9.8541 16.0417H12.1458C13.1583 16.0417 13.9791 16.8626 13.9791 17.8751V20.1667C13.9791 21.1793 13.1583 22.0001 12.1458 22.0001H9.8541C8.84158 22.0001 8.02075 21.1793 8.02075 20.1667V17.8751C8.02079 16.8626 8.84158 16.0417 9.8541 16.0417Z" fill="#007AFF"/>
<path d="M9.8541 8.02075H12.1458C13.1583 8.02075 13.9791 8.84158 13.9791 9.8541V12.1458C13.9791 13.1583 13.1583 13.9791 12.1458 13.9791H9.8541C8.84158 13.9791 8.02075 13.1583 8.02075 12.1458V9.8541C8.02079 8.84154 8.84158 8.02075 9.8541 8.02075Z" fill="#007AFF"/>
<path d="M9.8541 0H12.1458C13.1583 0 13.9791 0.820832 13.9791 1.83335V4.125C13.9791 5.13752 13.1583 5.95835 12.1458 5.95835H9.8541C8.84158 5.95835 8.02075 5.13752 8.02075 4.125V1.83335C8.02079 0.820832 8.84158 0 9.8541 0Z" fill="#007AFF"/>
<path d="M17.875 0H20.1666C21.1792 0 22 0.820832 22 1.83335V4.125C22 5.13752 21.1792 5.95835 20.1666 5.95835H17.875C16.8625 5.95835 16.0416 5.13752 16.0416 4.125V1.83335C16.0416 0.820832 16.8625 0 17.875 0Z" fill="#007AFF"/>
</g>
<defs>
<clipPath id="clip0_7_763">
<rect width="22" height="22" fill="white"/>
</clipPath>
</defs>
</svg>
