<svg width="22" height="22" viewBox="0 0 22 22" fill="none" xmlns="http://www.w3.org/2000/svg">
<g clip-path="url(#clip0_1_1263)">
<path d="M11 0C8.82441 0 6.69767 0.645139 4.88873 1.85383C3.07979 3.06253 1.66989 4.7805 0.83733 6.79048C0.00476615 8.80047 -0.213071 11.0122 0.211367 13.146C0.635804 15.2798 1.68345 17.2398 3.22183 18.7782C4.76021 20.3166 6.72022 21.3642 8.85401 21.7886C10.9878 22.2131 13.1995 21.9952 15.2095 21.1627C17.2195 20.3301 18.9375 18.9202 20.1462 17.1113C21.3549 15.3023 22 13.1756 22 11C21.9969 8.08359 20.8369 5.28753 18.7747 3.22531C16.7125 1.16309 13.9164 0.00315432 11 0ZM11 20.1667C9.18701 20.1667 7.41473 19.6291 5.90728 18.6218C4.39983 17.6146 3.22491 16.1829 2.53111 14.5079C1.83731 12.8329 1.65578 10.9898 2.00947 9.21167C2.36317 7.43351 3.23621 5.80017 4.51819 4.51819C5.80017 3.23621 7.43352 2.36317 9.21168 2.00947C10.9898 1.65577 12.8329 1.8373 14.5079 2.5311C16.1829 3.22491 17.6146 4.39982 18.6218 5.90727C19.6291 7.41472 20.1667 9.18701 20.1667 11C20.164 13.4303 19.1974 15.7604 17.4789 17.4789C15.7604 19.1974 13.4303 20.164 11 20.1667Z" fill="#007AFF"/>
<path d="M11.6572 4.64117C11.1286 4.54486 10.5852 4.5659 10.0656 4.70281C9.54606 4.83972 9.06292 5.08915 8.6504 5.43345C8.23789 5.77775 7.90609 6.20851 7.67848 6.69524C7.45087 7.18197 7.33301 7.71277 7.33325 8.25009C7.33325 8.49321 7.42983 8.72636 7.60174 8.89827C7.77365 9.07018 8.0068 9.16676 8.24992 9.16676C8.49303 9.16676 8.72619 9.07018 8.8981 8.89827C9.07001 8.72636 9.16659 8.49321 9.16659 8.25009C9.16635 7.98039 9.22563 7.71395 9.34019 7.46979C9.45476 7.22562 9.62178 7.00974 9.82935 6.83753C10.0369 6.66533 10.2799 6.54104 10.5411 6.47354C10.8022 6.40604 11.075 6.39698 11.34 6.44701C11.7021 6.5173 12.0351 6.69394 12.2963 6.95437C12.5576 7.2148 12.7352 7.54719 12.8067 7.90909C12.8788 8.28896 12.829 8.68191 12.6644 9.03177C12.4997 9.38162 12.2287 9.67047 11.89 9.85701C11.3292 10.1819 10.8657 10.6513 10.5479 11.2162C10.2302 11.7812 10.0697 12.421 10.0833 13.069V13.7501C10.0833 13.9932 10.1798 14.2264 10.3517 14.3983C10.5236 14.5702 10.7568 14.6668 10.9999 14.6668C11.243 14.6668 11.4762 14.5702 11.6481 14.3983C11.82 14.2264 11.9166 13.9932 11.9166 13.7501V13.069C11.9051 12.75 11.9778 12.4336 12.1275 12.1517C12.2771 11.8698 12.4984 11.6322 12.7691 11.463C13.4332 11.0982 13.968 10.5367 14.3 9.85555C14.6319 9.17441 14.7447 8.40717 14.6228 7.65932C14.5009 6.91147 14.1504 6.21976 13.6193 5.67929C13.0882 5.13883 12.4028 4.77617 11.6572 4.64117Z" fill="#007AFF"/>
<path d="M11.9166 16.4999C11.9166 15.9937 11.5062 15.5833 10.9999 15.5833C10.4937 15.5833 10.0833 15.9937 10.0833 16.4999C10.0833 17.0062 10.4937 17.4166 10.9999 17.4166C11.5062 17.4166 11.9166 17.0062 11.9166 16.4999Z" fill="#007AFF"/>
</g>
<defs>
<clipPath id="clip0_1_1263">
<rect width="22" height="22" fill="white"/>
</clipPath>
</defs>
</svg>
