<svg width="22" height="22" viewBox="0 0 22 22" fill="none" xmlns="http://www.w3.org/2000/svg">
<g clip-path="url(#clip0_2005_1108)">
<path fill-rule="evenodd" clip-rule="evenodd" d="M16.7861 21.4053C15.9924 21.1043 15.3158 20.7148 14.7827 20.3496C13.6137 20.823 12.3363 21.0834 11 21.0834C5.43114 21.0834 0.916672 16.5689 0.916672 11.0001C0.916672 5.43121 5.43114 0.916748 11 0.916748C16.5688 0.916748 21.0833 5.43121 21.0833 11.0001C21.0833 13.089 20.4472 15.0319 19.3581 16.6423C19.289 17.9738 19.9883 19.1769 20.7141 20.2415C21.3498 21.1739 21.1903 21.9253 20.005 21.9925C19.4737 22.0225 18.3244 21.9885 16.7861 21.4053ZM2.75001 11.0001C2.75001 6.44373 6.44366 2.75008 11 2.75008C15.5564 2.75008 19.25 6.44373 19.25 11.0001C19.25 12.7879 18.6824 14.4404 17.7173 15.7908C17.2904 16.3884 17.51 17.5082 17.6565 18.1511C17.7986 18.7751 18.1071 19.4381 18.4118 19.9947C18.1201 19.9244 17.7935 19.8265 17.4361 19.691C16.6136 19.3791 15.9339 18.9406 15.4545 18.5727C15.1824 18.3638 14.8165 18.3244 14.5063 18.4704C13.4433 18.9702 12.2556 19.2501 11 19.2501C6.44366 19.2501 2.75001 15.5565 2.75001 11.0001ZM6.41667 8.25008C5.91041 8.25008 5.5 8.66048 5.5 9.16675C5.5 9.67302 5.91041 10.0834 6.41667 10.0834H15.5833C16.0896 10.0834 16.5 9.67302 16.5 9.16675C16.5 8.66048 16.0896 8.25008 15.5833 8.25008H6.41667ZM6.41667 11.9167C5.91041 11.9167 5.5 12.3271 5.5 12.8334C5.5 13.3397 5.91041 13.7501 6.41667 13.7501H15.5833C16.0896 13.7501 16.5 13.3397 16.5 12.8334C16.5 12.3271 16.0896 11.9167 15.5833 11.9167H6.41667Z" fill="#007AFF"/>
</g>
<defs>
<clipPath id="clip0_2005_1108">
<rect width="22" height="22" fill="white"/>
</clipPath>
</defs>
</svg>
