<svg width="23" height="23" viewBox="0 0 23 23" fill="none" xmlns="http://www.w3.org/2000/svg">
<g clip-path="url(#clip0_65_819)">
<path d="M20.2975 5.75008L12.3913 1.22196C12.1185 1.07093 11.8118 0.991699 11.5 0.991699C11.1882 0.991699 10.8815 1.07093 10.6088 1.22196L2.70251 5.75008C2.42643 5.90778 2.19714 6.13591 2.03804 6.41118C1.87893 6.68645 1.79572 6.99901 1.79689 7.31696V15.8126C1.81755 16.1083 1.91106 16.3943 2.06907 16.6451C2.22708 16.8959 2.4447 17.1038 2.70251 17.2501L10.6088 21.7207C10.8815 21.8717 11.1882 21.951 11.5 21.951C11.8118 21.951 12.1185 21.8717 12.3913 21.7207L20.2975 17.2501C20.5553 17.1038 20.7729 16.8959 20.931 16.6451C21.089 16.3943 21.1825 16.1083 21.2031 15.8126V7.25946C21.1943 6.95131 21.1064 6.65062 20.9478 6.38628C20.7892 6.12194 20.5653 5.90286 20.2975 5.75008ZM10.6088 19.7082L7.54689 17.9832V10.3645L10.6088 12.032V19.7082ZM11.5 10.4795L8.51001 8.84071L15.4244 5.00258L18.4288 6.69883L11.5 10.4795ZM11.5 2.78883L13.5988 3.96758L6.64126 7.83446L4.57126 6.69883L11.5 2.78883ZM3.59376 8.20821L5.75001 9.38696V16.9626L3.59376 15.8126V8.20821ZM12.3913 19.7082V12.032L19.4063 8.20821V15.8126L12.3913 19.7082Z" fill="#007AFF"/>
</g>
<defs>
<clipPath id="clip0_65_819">
<rect width="23" height="23" fill="white"/>
</clipPath>
</defs>
</svg>
