<svg width="20" height="20" viewBox="0 0 20 20" fill="none" xmlns="http://www.w3.org/2000/svg">
<path fill-rule="evenodd" clip-rule="evenodd" d="M10 4.39622C10.0001 4.16146 10.0664 3.93149 10.1912 3.73263C10.3159 3.53378 10.4942 3.37407 10.7055 3.27181C10.9168 3.16954 11.1526 3.12885 11.386 3.15439C11.6194 3.17993 11.8408 3.27067 12.025 3.41622L18.71 8.70747C18.8578 8.8245 18.9772 8.97344 19.0593 9.14315C19.1414 9.31287 19.184 9.49895 19.184 9.68747C19.184 9.876 19.1414 10.0621 19.0593 10.2318C18.9772 10.4015 18.8578 10.5504 18.71 10.6675L12.0262 15.9587C11.8421 16.1046 11.6205 16.1957 11.3869 16.2214C11.1534 16.2472 10.9173 16.2066 10.7057 16.1043C10.4942 16.0019 10.3158 15.8421 10.191 15.643C10.0661 15.4439 9.99995 15.2137 10 14.9787V13.0475C9.05 12.9937 8.145 13.0512 7.1825 13.32C5.94 13.6687 4.535 14.3912 2.8 15.8075C2.60507 15.969 2.36542 16.0671 2.11317 16.0885C1.86092 16.11 1.60815 16.0538 1.38875 15.9275C1.15592 15.7935 0.97464 15.5855 0.873825 15.3365C0.773009 15.0875 0.758461 14.8119 0.832499 14.5537C1.35125 12.6787 2.61375 10.6275 4.3425 9.03872C5.8625 7.64247 7.805 6.55122 10 6.30247V4.39622ZM11.875 5.68872V7.18872C11.875 7.43736 11.7762 7.67582 11.6004 7.85163C11.4246 8.02745 11.1861 8.12622 10.9375 8.12622C8.955 8.12622 7.105 9.04872 5.61125 10.42C4.81195 11.156 4.12354 12.004 3.5675 12.9375C4.665 12.2475 5.68625 11.7925 6.6775 11.515C8.23625 11.0775 9.64875 11.1025 11.04 11.2562C11.2694 11.2815 11.4814 11.3904 11.6355 11.5622C11.7896 11.7341 11.8748 11.9567 11.875 12.1875V13.6875L16.9275 9.68747L11.875 5.68872Z" fill="#007AFF"/>
</svg>
