<svg width="22" height="22" viewBox="0 0 22 22" fill="none" xmlns="http://www.w3.org/2000/svg">
<path fill-rule="evenodd" clip-rule="evenodd" d="M0 11L4.23424 5.91891C5.90752 3.91097 8.38625 2.75 11 2.75C13.6138 2.75 16.0924 3.91097 17.7658 5.91891L22 11L17.7658 16.081C16.0924 18.0891 13.6138 19.25 11 19.25C8.38625 19.25 5.90752 18.0891 4.23424 16.081L0 11ZM11 15.125C13.2782 15.125 15.125 13.2782 15.125 11C15.125 8.72183 13.2782 6.875 11 6.875C8.72183 6.875 6.875 8.72183 6.875 11C6.875 13.2782 8.72183 15.125 11 15.125Z" fill="#007AFF"/>
</svg>
