<svg width="25" height="25" viewBox="0 0 25 25" fill="none" xmlns="http://www.w3.org/2000/svg">
<g clip-path="url(#clip0_1_1086)">
<path d="M23.125 2.2531C22.5394 1.76345 21.8532 1.40872 21.1151 1.21411C20.377 1.0195 19.6051 0.98978 18.8542 1.12706L14.8729 1.84998C13.9538 2.01877 13.118 2.49167 12.5 3.19269C11.8804 2.49046 11.0422 2.01746 10.1208 1.84998L6.14583 1.12706C5.39496 0.98966 4.62305 1.01899 3.88477 1.21297C3.14648 1.40696 2.45986 1.76086 1.87351 2.24962C1.28715 2.73838 0.815402 3.35005 0.491648 4.04134C0.167894 4.73263 5.08463e-05 5.48663 0 6.24998L0 17.4927C5.98499e-05 18.7123 0.428101 19.8932 1.20951 20.8295C1.99093 21.7659 3.07616 22.3983 4.27604 22.6166L10.824 23.8073C11.9322 24.0086 13.0678 24.0086 14.176 23.8073L20.7292 22.6166C21.9281 22.3973 23.0121 21.7643 23.7925 20.8281C24.5729 19.8918 25.0002 18.7115 25 17.4927V6.24998C25.0005 5.4869 24.8327 4.7331 24.5086 4.04226C24.1845 3.35142 23.7121 2.74054 23.125 2.2531ZM11.4583 21.8C11.3708 21.7875 11.2833 21.7729 11.1958 21.7573L4.64896 20.5677C3.92892 20.4367 3.2777 20.0571 2.80884 19.4952C2.33998 18.9332 2.08322 18.2245 2.08333 17.4927V6.24998C2.08333 5.42118 2.41257 4.62632 2.99863 4.04027C3.58468 3.45422 4.37953 3.12498 5.20833 3.12498C5.39697 3.12543 5.5852 3.14251 5.77083 3.17602L9.75 3.90519C10.2288 3.99279 10.6617 4.24526 10.9738 4.61877C11.2859 4.99229 11.4573 5.46327 11.4583 5.94998V21.8ZM22.9167 17.4927C22.9168 18.2245 22.66 18.9332 22.1912 19.4952C21.7223 20.0571 21.0711 20.4367 20.351 20.5677L13.8042 21.7573C13.7167 21.7729 13.6292 21.7875 13.5417 21.8V5.94998C13.5416 5.46207 13.7128 4.98962 14.0253 4.61499C14.3379 4.24036 14.7721 3.98731 15.2521 3.89998L19.2323 3.17081C19.683 3.0888 20.1463 3.10691 20.5893 3.22384C21.0323 3.34078 21.4441 3.55369 21.7956 3.84748C22.1472 4.14128 22.4298 4.50878 22.6236 4.92396C22.8173 5.33914 22.9174 5.79183 22.9167 6.24998V17.4927Z" fill="#E7E7E7"/>
</g>
<defs>
<clipPath id="clip0_1_1086">
<rect width="25" height="25" fill="white"/>
</clipPath>
</defs>
</svg>
