<svg width="25" height="25" viewBox="0 0 25 25" fill="none" xmlns="http://www.w3.org/2000/svg">
<g clip-path="url(#clip0_1_1150)">
<path d="M12.5 0C10.0277 0 7.61099 0.733112 5.55538 2.10663C3.49976 3.48015 1.89761 5.43238 0.951512 7.71646C0.00541608 10.0005 -0.242126 12.5139 0.24019 14.9386C0.722505 17.3634 1.91301 19.5907 3.66117 21.3388C5.40933 23.087 7.63662 24.2775 10.0614 24.7598C12.4861 25.2421 14.9995 24.9946 17.2836 24.0485C19.5676 23.1024 21.5199 21.5002 22.8934 19.4446C24.2669 17.389 25 14.9723 25 12.5C24.9964 9.1859 23.6783 6.00855 21.3349 3.66512C18.9915 1.3217 15.8141 0.00358446 12.5 0ZM12.5 22.9167C10.4398 22.9167 8.42583 22.3057 6.71282 21.1611C4.9998 20.0165 3.66467 18.3897 2.87626 16.4863C2.08785 14.5829 1.88156 12.4884 2.28349 10.4678C2.68542 8.44718 3.67751 6.5911 5.13431 5.13431C6.59111 3.67751 8.44718 2.68542 10.4678 2.28349C12.4885 1.88156 14.5829 2.08784 16.4863 2.87626C18.3897 3.66467 20.0166 4.9998 21.1611 6.71281C22.3057 8.42582 22.9167 10.4398 22.9167 12.5C22.9136 15.2617 21.8152 17.9095 19.8624 19.8624C17.9095 21.8152 15.2617 22.9136 12.5 22.9167Z" fill="#E7E7E7"/>
<path d="M13.2468 5.27403C12.6461 5.16458 12.0287 5.18849 11.4382 5.34407C10.8478 5.49965 10.2988 5.78309 9.83002 6.17435C9.36125 6.5656 8.9842 7.05509 8.72555 7.60819C8.46691 8.16129 8.33298 8.76448 8.33325 9.37507C8.33325 9.65134 8.443 9.91629 8.63835 10.1116C8.8337 10.307 9.09865 10.4167 9.37492 10.4167C9.65119 10.4167 9.91614 10.307 10.1115 10.1116C10.3068 9.91629 10.4166 9.65134 10.4166 9.37507C10.4163 9.06859 10.4837 8.76582 10.6139 8.48836C10.7441 8.2109 10.9339 7.96558 11.1697 7.76989C11.4056 7.57421 11.6818 7.43297 11.9785 7.35626C12.2752 7.27955 12.5852 7.26926 12.8864 7.32611C13.2979 7.40599 13.6762 7.60672 13.9731 7.90266C14.27 8.1986 14.4719 8.57632 14.553 8.98757C14.635 9.41924 14.5784 9.86578 14.3913 10.2633C14.2042 10.6609 13.8962 10.9891 13.5114 11.2011C12.8741 11.5703 12.3474 12.1037 11.9863 12.7457C11.6252 13.3877 11.4428 14.1147 11.4583 14.8511V15.6251C11.4583 15.9013 11.568 16.1663 11.7633 16.3616C11.9587 16.557 12.2237 16.6667 12.4999 16.6667C12.7762 16.6667 13.0411 16.557 13.2365 16.3616C13.4318 16.1663 13.5416 15.9013 13.5416 15.6251V14.8511C13.5285 14.4886 13.6112 14.1291 13.7812 13.8087C13.9513 13.4883 14.2028 13.2184 14.5103 13.0261C15.265 12.6116 15.8728 11.9735 16.25 11.1995C16.6272 10.4254 16.7554 9.55357 16.6169 8.70374C16.4784 7.85392 16.08 7.06787 15.4765 6.45371C14.873 5.83955 14.0941 5.42743 13.2468 5.27403Z" fill="#E7E7E7"/>
<path d="M13.5416 18.7499C13.5416 18.1746 13.0752 17.7083 12.4999 17.7083C11.9246 17.7083 11.4583 18.1746 11.4583 18.7499C11.4583 19.3252 11.9246 19.7916 12.4999 19.7916C13.0752 19.7916 13.5416 19.3252 13.5416 18.7499Z" fill="#E7E7E7"/>
</g>
<defs>
<clipPath id="clip0_1_1150">
<rect width="25" height="25" fill="white"/>
</clipPath>
</defs>
</svg>
