<svg width="25" height="25" viewBox="0 0 25 25" fill="none" xmlns="http://www.w3.org/2000/svg">
<g clip-path="url(#clip0_1_1008)">
<path d="M19.7917 25H5.20833C3.82751 24.9983 2.50371 24.4491 1.52731 23.4727C0.550919 22.4963 0.00165402 21.1725 0 19.7917L0 5.20833C0.00165402 3.82751 0.550919 2.50371 1.52731 1.52731C2.50371 0.550919 3.82751 0.00165402 5.20833 0L19.7917 0C21.1725 0.00165402 22.4963 0.550919 23.4727 1.52731C24.4491 2.50371 24.9983 3.82751 25 5.20833V19.7917C24.9983 21.1725 24.4491 22.4963 23.4727 23.4727C22.4963 24.4491 21.1725 24.9983 19.7917 25ZM5.20833 2.08333C4.37953 2.08333 3.58468 2.41257 2.99862 2.99862C2.41257 3.58468 2.08333 4.37953 2.08333 5.20833V19.7917C2.08333 20.6205 2.41257 21.4153 2.99862 22.0014C3.58468 22.5874 4.37953 22.9167 5.20833 22.9167H19.7917C20.6205 22.9167 21.4153 22.5874 22.0014 22.0014C22.5874 21.4153 22.9167 20.6205 22.9167 19.7917V5.20833C22.9167 4.37953 22.5874 3.58468 22.0014 2.99862C21.4153 2.41257 20.6205 2.08333 19.7917 2.08333H5.20833ZM6.25 12.5C6.25 12.706 6.31109 12.9074 6.42555 13.0787C6.54001 13.25 6.7027 13.3835 6.89304 13.4624C7.08338 13.5412 7.29282 13.5618 7.49489 13.5217C7.69695 13.4815 7.88256 13.3822 8.02824 13.2366C8.17392 13.0909 8.27312 12.9053 8.31332 12.7032C8.35351 12.5012 8.33288 12.2917 8.25404 12.1014C8.1752 11.911 8.04169 11.7483 7.87039 11.6339C7.69908 11.5194 7.49769 11.4583 7.29167 11.4583C7.0154 11.4583 6.75045 11.5681 6.5551 11.7634C6.35975 11.9588 6.25 12.2237 6.25 12.5ZM16.6667 12.5C16.6667 12.706 16.7278 12.9074 16.8422 13.0787C16.9567 13.25 17.1194 13.3835 17.3097 13.4624C17.5 13.5412 17.7095 13.5618 17.9116 13.5217C18.1136 13.4815 18.2992 13.3822 18.4449 13.2366C18.5906 13.0909 18.6898 12.9053 18.73 12.7032C18.7702 12.5012 18.7495 12.2917 18.6707 12.1014C18.5919 11.911 18.4584 11.7483 18.2871 11.6339C18.1158 11.5194 17.9144 11.4583 17.7083 11.4583C17.4321 11.4583 17.1671 11.5681 16.9718 11.7634C16.7764 11.9588 16.6667 12.2237 16.6667 12.5ZM6.25 7.29167C6.25 7.49769 6.31109 7.69908 6.42555 7.87039C6.54001 8.04169 6.7027 8.1752 6.89304 8.25404C7.08338 8.33288 7.29282 8.35351 7.49489 8.31332C7.69695 8.27312 7.88256 8.17392 8.02824 8.02824C8.17392 7.88256 8.27312 7.69695 8.31332 7.49489C8.35351 7.29282 8.33288 7.08338 8.25404 6.89304C8.1752 6.7027 8.04169 6.54001 7.87039 6.42555C7.69908 6.31109 7.49769 6.25 7.29167 6.25C7.0154 6.25 6.75045 6.35975 6.5551 6.5551C6.35975 6.75045 6.25 7.0154 6.25 7.29167ZM16.6667 7.29167C16.6667 7.49769 16.7278 7.69908 16.8422 7.87039C16.9567 8.04169 17.1194 8.1752 17.3097 8.25404C17.5 8.33288 17.7095 8.35351 17.9116 8.31332C18.1136 8.27312 18.2992 8.17392 18.4449 8.02824C18.5906 7.88256 18.6898 7.69695 18.73 7.49489C18.7702 7.29282 18.7495 7.08338 18.6707 6.89304C18.5919 6.7027 18.4584 6.54001 18.2871 6.42555C18.1158 6.31109 17.9144 6.25 17.7083 6.25C17.4321 6.25 17.1671 6.35975 16.9718 6.5551C16.7764 6.75045 16.6667 7.0154 16.6667 7.29167ZM6.25 17.7083C6.25 17.9144 6.31109 18.1158 6.42555 18.2871C6.54001 18.4584 6.7027 18.5919 6.89304 18.6707C7.08338 18.7495 7.29282 18.7702 7.49489 18.73C7.69695 18.6898 7.88256 18.5906 8.02824 18.4449C8.17392 18.2992 8.27312 18.1136 8.31332 17.9116C8.35351 17.7095 8.33288 17.5 8.25404 17.3097C8.1752 17.1194 8.04169 16.9567 7.87039 16.8422C7.69908 16.7278 7.49769 16.6667 7.29167 16.6667C7.0154 16.6667 6.75045 16.7764 6.5551 16.9718C6.35975 17.1671 6.25 17.4321 6.25 17.7083ZM16.6667 17.7083C16.6667 17.9144 16.7278 18.1158 16.8422 18.2871C16.9567 18.4584 17.1194 18.5919 17.3097 18.6707C17.5 18.7495 17.7095 18.7702 17.9116 18.73C18.1136 18.6898 18.2992 18.5906 18.4449 18.4449C18.5906 18.2992 18.6898 18.1136 18.73 17.9116C18.7702 17.7095 18.7495 17.5 18.6707 17.3097C18.5919 17.1194 18.4584 16.9567 18.2871 16.8422C18.1158 16.7278 17.9144 16.6667 17.7083 16.6667C17.4321 16.6667 17.1671 16.7764 16.9718 16.9718C16.7764 17.1671 16.6667 17.4321 16.6667 17.7083Z" fill="#E7E7E7"/>
</g>
<defs>
<clipPath id="clip0_1_1008">
<rect width="25" height="25" fill="white"/>
</clipPath>
</defs>
</svg>
