<svg width="25" height="25" viewBox="0 0 25 25" fill="none" xmlns="http://www.w3.org/2000/svg">
<g clip-path="url(#clip0_1_1001)">
<path d="M23.9584 15.625H23.2636C23.0032 15.625 22.7449 15.6448 22.4876 15.6844L15.148 10.1802L16.9063 8.49686C17.3219 8.09894 17.3365 7.43853 16.9386 7.02394C16.5396 6.60832 15.8792 6.59478 15.4657 6.99165L11.1188 11.1531C10.9021 11.3698 10.6074 11.4812 10.298 11.4552C9.98757 11.4302 9.71465 11.2729 9.52819 11.0125C9.24277 10.6167 9.33027 9.99686 9.70319 9.6229L14.6021 5.00936C15.5303 4.13748 16.9813 3.92394 18.1167 4.49373L20.5292 5.69998C21.248 6.05936 22.0542 6.24894 22.8574 6.24894H23.9574C24.5334 6.24894 24.999 5.78332 24.999 5.20728C24.999 4.63123 24.5334 4.16561 23.9574 4.16561H22.8574C22.3751 4.16561 21.8907 4.05207 21.4594 3.83644L19.049 2.63019C17.149 1.67915 14.723 2.03228 13.173 3.49269L12.5292 4.09894L11.8001 3.43436C10.8428 2.56248 9.60319 2.08228 8.26882 2.08228C7.46569 2.08228 6.66465 2.27186 5.94902 2.62915L3.53861 3.8354C3.10631 4.05103 2.62194 4.16457 2.13965 4.16457H1.04173C0.46569 4.16457 6.51042e-05 4.63019 6.51042e-05 5.20623C6.51042e-05 5.78228 0.46569 6.2479 1.04173 6.2479H2.14173C2.94486 6.2479 3.75111 6.05728 4.4709 5.69894L6.8834 4.49269C7.94798 3.95728 9.44382 4.10207 10.398 4.97394L11.0094 5.53123L8.25319 8.12707C7.13548 9.24374 6.95736 11.0094 7.83861 12.2292C8.38027 12.9823 9.45632 13.5406 10.3844 13.5406C11.2105 13.5406 12.0032 13.2156 12.5761 12.6417L13.624 11.6385L20.2344 16.5958C20.2021 16.6187 13.7782 21.4354 13.7782 21.4354C13.0251 22.0208 11.974 22.0208 11.2053 21.4239L4.86048 16.6656C3.96569 15.9937 2.85527 15.6239 1.73548 15.6239H1.04069C0.464648 15.6239 -0.000976562 16.0896 -0.000976562 16.6656C-0.000976562 17.2417 0.464648 17.7073 1.04069 17.7073H1.73548C2.40736 17.7073 3.07298 17.9292 3.61048 18.3323L9.94069 23.0802C10.6959 23.6677 11.6011 23.9614 12.5042 23.9614C13.4021 23.9614 14.299 23.6708 15.0428 23.0917L21.3896 18.3333C21.9261 17.9302 22.5917 17.7083 23.2636 17.7083H23.9584C24.5344 17.7083 25.0001 17.2427 25.0001 16.6667C25.0001 16.0906 24.5344 15.625 23.9584 15.625Z" fill="#E7E7E7"/>
</g>
<defs>
<clipPath id="clip0_1_1001">
<rect width="25" height="25" fill="white"/>
</clipPath>
</defs>
</svg>
