<svg width="25" height="25" viewBox="0 0 25 25" fill="none" xmlns="http://www.w3.org/2000/svg">
<g clip-path="url(#clip0_1_1141)">
<path d="M12.5 0C10.0277 0 7.61099 0.733112 5.55538 2.10663C3.49976 3.48015 1.89761 5.43238 0.951511 7.71646C0.00541608 10.0005 -0.242126 12.5139 0.24019 14.9386C0.722505 17.3634 1.91301 19.5907 3.66117 21.3388C5.40933 23.087 7.63661 24.2775 10.0614 24.7598C12.4861 25.2421 14.9995 24.9946 17.2835 24.0485C19.5676 23.1024 21.5199 21.5002 22.8934 19.4446C24.2669 17.389 25 14.9723 25 12.5C24.9964 9.18589 23.6783 6.00855 21.3349 3.66512C18.9915 1.3217 15.8141 0.00358446 12.5 0ZM12.5 22.9167C10.4398 22.9167 8.42583 22.3057 6.71282 21.1611C4.9998 20.0165 3.66467 18.3897 2.87626 16.4863C2.08785 14.5829 1.88156 12.4884 2.28349 10.4678C2.68542 8.44717 3.67751 6.5911 5.13431 5.1343C6.59111 3.67751 8.44718 2.68542 10.4678 2.28349C12.4885 1.88156 14.5829 2.08784 16.4863 2.87625C18.3897 3.66467 20.0165 4.9998 21.1611 6.71281C22.3057 8.42582 22.9167 10.4398 22.9167 12.5C22.9136 15.2617 21.8152 17.9095 19.8624 19.8623C17.9095 21.8152 15.2617 22.9136 12.5 22.9167Z" fill="#E7E7E7"/>
<path d="M12.4998 10.4167H11.4582C11.1819 10.4167 10.917 10.5265 10.7216 10.7218C10.5263 10.9172 10.4165 11.1821 10.4165 11.4584C10.4165 11.7347 10.5263 11.9996 10.7216 12.195C10.917 12.3903 11.1819 12.5001 11.4582 12.5001H12.4998V18.7501C12.4998 19.0263 12.6096 19.2913 12.8049 19.4867C13.0003 19.682 13.2652 19.7917 13.5415 19.7917C13.8178 19.7917 14.0827 19.682 14.2781 19.4867C14.4734 19.2913 14.5832 19.0263 14.5832 18.7501V12.5001C14.5832 11.9475 14.3637 11.4176 13.973 11.0269C13.5823 10.6362 13.0524 10.4167 12.4998 10.4167Z" fill="#E7E7E7"/>
<path d="M12.5 8.33325C13.3629 8.33325 14.0625 7.6337 14.0625 6.77075C14.0625 5.90781 13.3629 5.20825 12.5 5.20825C11.6371 5.20825 10.9375 5.90781 10.9375 6.77075C10.9375 7.6337 11.6371 8.33325 12.5 8.33325Z" fill="#E7E7E7"/>
</g>
<defs>
<clipPath id="clip0_1_1141">
<rect width="25" height="25" fill="white"/>
</clipPath>
</defs>
</svg>
