<svg width="25" height="25" viewBox="0 0 25 25" fill="none" xmlns="http://www.w3.org/2000/svg">
<g clip-path="url(#clip0_1_1124)">
<path d="M19.7917 4.16667H18.6458C18.4041 2.99105 17.7644 1.93474 16.8346 1.17575C15.9049 0.41676 14.7419 0.00151513 13.5417 0L11.4583 0C10.2581 0.00151513 9.09512 0.41676 8.16536 1.17575C7.2356 1.93474 6.59593 2.99105 6.35417 4.16667H5.20833C3.82751 4.16832 2.50371 4.71759 1.52731 5.69398C0.550919 6.67037 0.00165402 7.99417 0 9.375L0 19.7917C0.00165402 21.1725 0.550919 22.4963 1.52731 23.4727C2.50371 24.4491 3.82751 24.9983 5.20833 25H19.7917C21.1725 24.9983 22.4963 24.4491 23.4727 23.4727C24.4491 22.4963 24.9983 21.1725 25 19.7917V9.375C24.9983 7.99417 24.4491 6.67037 23.4727 5.69398C22.4963 4.71759 21.1725 4.16832 19.7917 4.16667ZM11.4583 2.08333H13.5417C14.1857 2.086 14.8132 2.28759 15.3382 2.66051C15.8633 3.03343 16.2603 3.55947 16.475 4.16667H8.525C8.73967 3.55947 9.1367 3.03343 9.66177 2.66051C10.1868 2.28759 10.8143 2.086 11.4583 2.08333ZM5.20833 6.25H19.7917C20.6205 6.25 21.4153 6.57924 22.0014 7.16529C22.5874 7.75134 22.9167 8.5462 22.9167 9.375V12.5H2.08333V9.375C2.08333 8.5462 2.41257 7.75134 2.99862 7.16529C3.58468 6.57924 4.37953 6.25 5.20833 6.25ZM19.7917 22.9167H5.20833C4.37953 22.9167 3.58468 22.5874 2.99862 22.0014C2.41257 21.4153 2.08333 20.6205 2.08333 19.7917V14.5833H11.4583V15.625C11.4583 15.9013 11.5681 16.1662 11.7634 16.3616C11.9588 16.5569 12.2237 16.6667 12.5 16.6667C12.7763 16.6667 13.0412 16.5569 13.2366 16.3616C13.4319 16.1662 13.5417 15.9013 13.5417 15.625V14.5833H22.9167V19.7917C22.9167 20.6205 22.5874 21.4153 22.0014 22.0014C21.4153 22.5874 20.6205 22.9167 19.7917 22.9167Z" fill="#E7E7E7"/>
</g>
<defs>
<clipPath id="clip0_1_1124">
<rect width="25" height="25" fill="white"/>
</clipPath>
</defs>
</svg>
