<svg width="25" height="25" viewBox="0 0 25 25" fill="none" xmlns="http://www.w3.org/2000/svg">
<g clip-path="url(#clip0_1_1131)">
<path d="M7.29167 0H4.16667C3.0616 0 2.00179 0.438987 1.22039 1.22039C0.438987 2.00179 0 3.0616 0 4.16667L0 7.29167C0 8.39674 0.438987 9.45654 1.22039 10.2379C2.00179 11.0193 3.0616 11.4583 4.16667 11.4583H7.29167C8.39674 11.4583 9.45654 11.0193 10.2379 10.2379C11.0193 9.45654 11.4583 8.39674 11.4583 7.29167V4.16667C11.4583 3.0616 11.0193 2.00179 10.2379 1.22039C9.45654 0.438987 8.39674 0 7.29167 0ZM9.375 7.29167C9.375 7.8442 9.15551 8.37411 8.76481 8.76481C8.37411 9.15551 7.8442 9.375 7.29167 9.375H4.16667C3.61413 9.375 3.08423 9.15551 2.69353 8.76481C2.30283 8.37411 2.08333 7.8442 2.08333 7.29167V4.16667C2.08333 3.61413 2.30283 3.08423 2.69353 2.69353C3.08423 2.30283 3.61413 2.08333 4.16667 2.08333H7.29167C7.8442 2.08333 8.37411 2.30283 8.76481 2.69353C9.15551 3.08423 9.375 3.61413 9.375 4.16667V7.29167Z" fill="#E7E7E7"/>
<path d="M20.8332 0H17.7082C16.6031 0 15.5433 0.438987 14.7619 1.22039C13.9805 2.00179 13.5415 3.0616 13.5415 4.16667V7.29167C13.5415 8.39674 13.9805 9.45654 14.7619 10.2379C15.5433 11.0193 16.6031 11.4583 17.7082 11.4583H20.8332C21.9382 11.4583 22.998 11.0193 23.7794 10.2379C24.5609 9.45654 24.9998 8.39674 24.9998 7.29167V4.16667C24.9998 3.0616 24.5609 2.00179 23.7794 1.22039C22.998 0.438987 21.9382 0 20.8332 0ZM22.9165 7.29167C22.9165 7.8442 22.697 8.37411 22.3063 8.76481C21.9156 9.15551 21.3857 9.375 20.8332 9.375H17.7082C17.1556 9.375 16.6257 9.15551 16.235 8.76481C15.8443 8.37411 15.6248 7.8442 15.6248 7.29167V4.16667C15.6248 3.61413 15.8443 3.08423 16.235 2.69353C16.6257 2.30283 17.1556 2.08333 17.7082 2.08333H20.8332C21.3857 2.08333 21.9156 2.30283 22.3063 2.69353C22.697 3.08423 22.9165 3.61413 22.9165 4.16667V7.29167Z" fill="#E7E7E7"/>
<path d="M7.29167 13.5417H4.16667C3.0616 13.5417 2.00179 13.9807 1.22039 14.7621C0.438987 15.5435 0 16.6033 0 17.7084L0 20.8334C0 21.9385 0.438987 22.9983 1.22039 23.7797C2.00179 24.5611 3.0616 25.0001 4.16667 25.0001H7.29167C8.39674 25.0001 9.45654 24.5611 10.2379 23.7797C11.0193 22.9983 11.4583 21.9385 11.4583 20.8334V17.7084C11.4583 16.6033 11.0193 15.5435 10.2379 14.7621C9.45654 13.9807 8.39674 13.5417 7.29167 13.5417ZM9.375 20.8334C9.375 21.3859 9.15551 21.9159 8.76481 22.3066C8.37411 22.6973 7.8442 22.9167 7.29167 22.9167H4.16667C3.61413 22.9167 3.08423 22.6973 2.69353 22.3066C2.30283 21.9159 2.08333 21.3859 2.08333 20.8334V17.7084C2.08333 17.1559 2.30283 16.626 2.69353 16.2353C3.08423 15.8446 3.61413 15.6251 4.16667 15.6251H7.29167C7.8442 15.6251 8.37411 15.8446 8.76481 16.2353C9.15551 16.626 9.375 17.1559 9.375 17.7084V20.8334Z" fill="#E7E7E7"/>
<path d="M20.8332 13.5417H17.7082C16.6031 13.5417 15.5433 13.9807 14.7619 14.7621C13.9805 15.5435 13.5415 16.6033 13.5415 17.7084V20.8334C13.5415 21.9385 13.9805 22.9983 14.7619 23.7797C15.5433 24.5611 16.6031 25.0001 17.7082 25.0001H20.8332C21.9382 25.0001 22.998 24.5611 23.7794 23.7797C24.5609 22.9983 24.9998 21.9385 24.9998 20.8334V17.7084C24.9998 16.6033 24.5609 15.5435 23.7794 14.7621C22.998 13.9807 21.9382 13.5417 20.8332 13.5417ZM22.9165 20.8334C22.9165 21.3859 22.697 21.9159 22.3063 22.3066C21.9156 22.6973 21.3857 22.9167 20.8332 22.9167H17.7082C17.1556 22.9167 16.6257 22.6973 16.235 22.3066C15.8443 21.9159 15.6248 21.3859 15.6248 20.8334V17.7084C15.6248 17.1559 15.8443 16.626 16.235 16.2353C16.6257 15.8446 17.1556 15.6251 17.7082 15.6251H20.8332C21.3857 15.6251 21.9156 15.8446 22.3063 16.2353C22.697 16.626 22.9165 17.1559 22.9165 17.7084V20.8334Z" fill="#E7E7E7"/>
</g>
<defs>
<clipPath id="clip0_1_1131">
<rect width="25" height="25" fill="white"/>
</clipPath>
</defs>
</svg>
